# xmcd CD database file
#
# Track frame offsets:
#	150
#	12300
#	26992
#	45242
#	63187
#	81627
#	105435
#	124592
#	142260
#	153230
#	168505
#	198540
#	213027
#	232557
#
# Disc length: 3336 seconds
#
# Revision: 0
# Processed by: cddbd v1.5.2PL0 Copyright (c) Steve Scherf et al.
# Submitted via: CDex 1.51
#
DISCID=b20d060e
DTITLE=Nashville Train - Country and Western Party CD2
DYEAR=1994
DGENRE=Country
TTITLE0=Looking Out My Backdoor
TTITLE1=Ruby, Don't Take Your Love To Town
TTITLE2=Augsburg Town
TTITLE3=Blue Bayou
TTITLE4=Poor Boy Blues
TTITLE5=Blue Suede Shoes and Roll Over Beethoven
TTITLE6=Why Not Me
TTITLE7=Pilot Of The Airways
TTITLE8=Texas Style
TTITLE9=Square Dance
TTITLE10=Orange Blossom Special
TTITLE11=Sentimental Journey
TTITLE12=Perfect
TTITLE13=Down At The Twist And Shout
EXTD=YEAR: 1994
EXTT0=
EXTT1=
EXTT2=
EXTT3=
EXTT4=
EXTT5=
EXTT6=
EXTT7=
EXTT8=
EXTT9=
EXTT10=
EXTT11=
EXTT12=
EXTT13=
PLAYORDER=
